<svg width="78" height="79" viewBox="0 0 78 79" fill="none" xmlns="http://www.w3.org/2000/svg">
<g filter="url(#filter0_d_2_243)">
<path fill-rule="evenodd" clip-rule="evenodd" d="M49.3829 0.729095C45.1862 1.32847 41.2548 4.04012 39.1009 7.82125C38.7801 8.38436 37.8845 10.5405 37.1106 12.6127L35.7037 16.3803H35.1018H34.4998V15.5977C34.4998 14.9549 34.4379 14.7531 34.1535 14.4687C33.8248 14.1397 33.7229 14.1224 32.1432 14.1238C30.3039 14.1255 27.1997 14.4281 25.702 14.7517C23.9846 15.1228 22.9214 15.9918 22.3648 17.4794C21.6165 19.4785 22.5228 21.7394 24.4521 22.6872C25.2436 23.0762 25.3197 23.0853 28.3056 23.1545L31.3516 23.2251L29.6677 25.2714C27.7705 27.5769 26.8466 28.8824 26.1881 30.1877C25.8264 30.9047 25.6898 31.0605 25.4984 30.975C25.3671 30.9165 24.72 30.6757 24.0605 30.44C22.9642 30.0484 22.7041 30.011 21.0274 30.0055C18.9407 29.9984 17.8582 30.2544 16.0899 31.1735C14.7194 31.8856 12.73 33.8735 12.0393 35.221C10.6664 37.8992 10.456 40.576 11.3937 43.4336L11.6901 44.337L9.8521 46.2004C8.84103 47.2253 7.9053 48.2773 7.77269 48.5384C7.40111 49.2692 7.33805 50.3733 7.61963 51.2212L7.86072 51.9475L7.30095 52.8344C5.96401 54.952 4.97735 57.357 4.43507 59.82C4.17098 61.0193 4.12541 61.7697 4.06673 65.8813L4 70.5739H5.12829H6.25673L6.32684 65.9519C6.40133 61.0316 6.45296 60.587 7.22364 58.2251C7.63613 56.9607 8.62336 54.8992 9.25889 53.9752C9.63879 53.4229 9.71159 53.3785 10.0365 53.502C10.5699 53.705 11.3682 53.6676 12.15 53.4032C12.7177 53.2113 13.2011 52.8184 14.786 51.2606L16.7268 49.353L17.6074 49.6553C18.7168 50.0362 19.9307 50.2513 20.9704 50.2513C21.7411 50.2513 23.5715 49.9598 24.0957 49.7537C24.3233 49.6642 24.3427 49.8039 24.345 51.5416C24.3478 53.637 24.5656 54.9397 25.1137 56.1372L25.4712 56.9185V62.2832C25.4712 66.0827 25.5213 67.8175 25.6427 68.2289C25.8717 69.0041 27.0403 70.1732 27.8152 70.4022C28.2232 70.5228 29.8829 70.5739 33.3977 70.5739C39.2058 70.5739 39.3311 70.5535 40.3259 69.4465C41.1604 68.5182 41.2713 68.0399 41.2713 65.371C41.2713 63.1944 41.2835 63.094 41.5511 63.094C41.7051 63.094 42.8635 63.1876 44.1257 63.3019C48.492 63.6973 52.3918 63.7992 63.1727 63.7994L74 63.7997V62.6833V61.567L61.3388 61.5022C46.7674 61.4276 44.9669 61.3305 37.0391 60.1923C31.4862 59.3949 30.2751 58.9962 28.706 57.4489C27.7063 56.4632 27.1725 55.5279 26.8156 54.138C26.5649 53.1612 26.5007 48.4166 26.7381 48.4166C27.0186 48.4166 28.8465 46.5471 29.4058 45.6881C30.3932 44.1721 31.1141 41.9468 31.1141 40.4151C31.1141 39.971 31.1478 39.9266 31.4315 39.9958C32.0299 40.1422 37.5323 40.7874 39.3991 40.9301C40.4255 41.0087 42.5948 41.1156 44.2198 41.1679L47.1741 41.2629L47.6242 40.8127C48.0543 40.3824 48.0698 40.3283 47.9767 39.5836C47.6335 36.8355 46.2876 34.1253 44.1734 31.9244C42.9121 30.6113 41.7939 29.8093 40.1156 29.014C38.0358 28.0284 36.8879 27.7974 33.5415 27.6911L30.6789 27.6001L33.4477 24.2141L36.2165 20.8283L37.767 20.5803C41.8584 19.9259 48.099 19.2571 53.3329 18.912C54.652 18.8249 59.8416 18.7206 64.8656 18.68L74 18.606V17.476V16.3462L64.7245 16.4205C55.5047 16.4943 52.3766 16.6243 46.9141 17.1603C44.2776 17.4192 40.5361 17.8763 38.8117 18.1505C38.1183 18.2607 37.5202 18.32 37.4825 18.2822C37.3961 18.1958 40.0125 11.1647 40.6501 9.76982C41.9045 7.02543 44.3028 4.77922 47.1963 3.63861C49.2133 2.84363 49.4306 2.83192 62.236 2.83192H74V1.70288V0.573853L62.1147 0.59107C55.5778 0.600526 49.8484 0.662623 49.3829 0.729095ZM32.2426 17.1629C32.2426 17.8057 32.3046 18.0075 32.589 18.2919C32.8861 18.5893 33.0662 18.6384 33.8586 18.6384C34.5449 18.6384 34.7819 18.6879 34.7819 18.8312C34.7819 18.9371 34.4486 19.4414 34.0413 19.9517L33.3007 20.8796L29.5623 20.8875C26.0724 20.8949 25.7932 20.8767 25.3641 20.6149C24.0959 19.8414 24.0276 18.0922 25.2347 17.301C25.8429 16.9022 28.8899 16.4434 31.2199 16.3995L32.2426 16.3803V17.1629ZM37.2951 30.334C39.3271 30.9373 41.3919 32.1972 42.7263 33.6481C43.9291 34.956 45.1276 37.11 45.4271 38.5023L45.5259 38.9609L44.915 38.9588C42.658 38.9514 36.426 38.4465 33.7944 38.058L32.5953 37.881L33.2301 37.6849C34.0623 37.4276 35.2215 36.2835 35.4568 35.4869C35.8476 34.1637 35.5721 33.1088 34.5751 32.1114C33.1441 30.6799 31.342 30.6835 29.8966 32.1206C29.4518 32.5627 29.1336 33.0193 29.0708 33.3052L28.9688 33.7704L28.2839 33.0955L27.599 32.4206L28.2492 31.1612L28.8994 29.9017L32.5814 29.9647C35.8342 30.0203 36.3834 30.0633 37.2951 30.334ZM53.7561 30.0599C52.4865 30.3672 51.3122 31.3291 50.729 32.5396C50.3182 33.3921 50.1694 35.6057 50.4363 36.8919C50.9789 39.5066 53.2016 41.7137 55.7863 42.204C56.2514 42.2923 59.9266 42.348 65.2727 42.348H74V41.219V40.09H72.8714H71.7428V38.3964V36.7029H72.8714H74V35.5739V34.4448H72.8714H71.7428V33.3158V32.1868H72.8714H74V31.0577V29.9287L64.0897 29.9431C58.6391 29.9511 53.9889 30.0036 53.7561 30.0599ZM23.3653 32.6001C25.0284 33.1169 26.8416 34.5326 27.6946 35.9803C29.0866 38.3429 29.1994 41.088 28.0064 43.5667C26.8145 46.0432 24.3734 47.71 21.5942 47.9449C20.608 48.0283 18.7718 47.8007 18.6343 47.578C18.6001 47.5228 18.9659 47.0931 19.4471 46.6231L20.322 45.7687L21.3581 45.6884C23.4098 45.5295 25.0738 44.3915 26.0023 42.5118C26.4996 41.5052 26.5292 41.3696 26.5292 40.0973C26.5292 38.8766 26.487 38.6602 26.0827 37.8065C25.4614 36.4944 24.6617 35.6773 23.3777 35.0425C22.3704 34.5445 22.2371 34.5154 20.9569 34.5154C19.6766 34.5154 19.5433 34.5445 18.5361 35.0425C16.6571 35.9714 15.5195 37.636 15.3607 39.6886L15.2804 40.7251L14.4264 41.6003C13.9566 42.0817 13.5255 42.4467 13.4682 42.4113C13.4111 42.376 13.2875 41.8915 13.1937 41.3347C12.5162 37.3171 15.2368 33.3121 19.264 32.3984C20.4301 32.134 22.1345 32.2178 23.3653 32.6001ZM55.9428 33.3158V34.4448H54.2499C52.4107 34.4448 52.4048 34.4417 52.7076 33.6425C53.069 32.6882 53.8837 32.2007 55.1316 32.1923L55.9428 32.1868V33.3158ZM60.4571 33.3158V34.4448H59.3285H58.1999V33.3158V32.1868H59.3285H60.4571V33.3158ZM64.9714 33.3158V34.4448H63.8428H62.7142V33.3158V32.1868H63.8428H64.9714V33.3158ZM69.4857 33.3158V34.4448H68.3571H67.2285V33.3158V32.1868H68.3571H69.4857V33.3158ZM33.0249 33.6623C33.7247 34.3623 33.2289 35.5739 32.2426 35.5739C31.9678 35.5739 31.6786 35.4458 31.4604 35.2274C31.242 35.0091 31.1141 34.7197 31.1141 34.4448C31.1141 34.1699 31.242 33.8806 31.4604 33.6623C31.6786 33.4438 31.9678 33.3158 32.2426 33.3158C32.5175 33.3158 32.8066 33.4438 33.0249 33.6623ZM38.0901 33.5144C36.6668 34.1345 36.3306 36.0273 37.4457 37.1429C39.0306 38.7285 41.6279 37.3083 41.2109 35.084C40.9613 33.7537 39.3736 32.9551 38.0901 33.5144ZM22.1029 36.9204C22.4425 37.04 22.9879 37.4005 23.3149 37.7213C24.6209 39.0022 24.6829 40.9421 23.4595 42.2528C23.1305 42.6053 22.9492 42.7287 23.0083 42.5597C23.2429 41.8894 23.2396 40.9454 23 40.2241C22.3979 38.4104 20.3725 37.4321 18.4881 38.0447C18.3132 38.1016 18.4311 37.9262 18.7983 37.5832C19.7212 36.7214 20.8793 36.4892 22.1029 36.9204ZM55.9428 38.3223V39.9418L55.5891 39.8073C54.8823 39.5385 54.4508 39.2596 53.9189 38.7275C53.3871 38.1955 53.1083 37.7637 52.8396 37.0567L52.7052 36.7029H54.324H55.9428V38.3223ZM60.4571 38.3964V40.09H59.3285H58.1999V38.3964V36.7029H59.3285H60.4571V38.3964ZM64.9714 38.3964V40.09H63.8428H62.7142V38.3964V36.7029H63.8428H64.9714V38.3964ZM69.4857 38.3964V40.09H68.3571H67.2285V38.3964V36.7029H68.3571H69.4857V38.3964ZM20.5445 40.5025C20.8341 40.7924 20.9569 41.054 20.9569 41.3823C20.9569 41.8078 20.5321 42.2744 16.1934 46.6149C11.8546 50.9554 11.3882 51.3803 10.9629 51.3803C10.3213 51.3803 9.6711 50.7298 9.6711 50.088C9.6711 49.6625 10.0959 49.1959 14.4345 44.8553C18.7734 40.5149 19.2397 40.09 19.6651 40.09C19.9932 40.09 20.2548 40.2128 20.5445 40.5025ZM39.4802 43.6886C39.3102 43.8077 39.046 44.298 38.8756 44.81C38.4127 46.2014 37.7416 46.8642 36.7953 46.8642C36.576 46.8642 36.271 46.9521 36.1176 47.0596C35.8805 47.2257 35.4364 47.2266 33.1589 47.065C29.5341 46.8077 29.6085 46.805 29.2032 47.2106L28.8569 47.557V50.8547C28.8569 54.6874 28.951 55.1511 29.9262 56.1268C30.3521 56.553 30.748 56.7906 31.2797 56.9398C31.785 57.0815 34.8859 57.3189 40.749 57.6644C48.79 58.1381 49.4937 58.1606 49.8106 57.9528C49.9997 57.8289 50.1949 57.5654 50.2447 57.3674C50.379 56.832 48.0004 48.5651 47.6223 48.2534C47.4275 48.0927 46.9177 47.9881 45.9927 47.9187C44.7102 47.8224 44.637 47.7993 44.4454 47.4286C44.2262 47.0046 43.9758 46.8642 43.4394 46.8642C42.5497 46.8642 41.8477 46.1656 41.4185 44.8529C41.0887 43.8442 40.7484 43.4771 40.1427 43.4771C39.9445 43.4771 39.6464 43.5723 39.4802 43.6886ZM40.4308 47.7886C40.5806 47.9694 40.5714 48.0482 40.3774 48.2422C40.1585 48.4613 40.1269 48.4613 39.9079 48.2422C39.714 48.0482 39.7048 47.9694 39.8546 47.7886C39.9545 47.6683 40.0841 47.5698 40.1427 47.5698C40.2012 47.5698 40.3309 47.6683 40.4308 47.7886ZM51.7549 48.3594C51.4016 48.7128 51.3921 48.7669 51.4795 49.9056C51.6691 52.3734 52.63 54.4178 54.4611 56.2497C55.7441 57.5332 56.9208 58.274 58.5526 58.8253L59.6812 59.2065L66.8406 59.2533L74 59.3V58.1627V57.0255H67.3922C61.2493 57.0255 60.7069 57.0056 59.6827 56.7436C58.2635 56.3805 57.0313 55.6846 56.0252 54.6779C55.1021 53.7547 54.6196 52.9882 54.1552 51.7083C53.5612 50.0713 52.3557 50.2513 63.9133 50.2513H74V49.1222V47.9932H63.0606H52.121L51.7549 48.3594ZM35.2052 49.4721C38.5235 49.7069 38.3619 49.6321 38.8739 51.1712C39.1964 52.1406 39.5459 52.5093 40.1427 52.5093C40.7322 52.5093 41.0893 52.1394 41.403 51.204C41.8581 49.8468 41.6812 49.9306 43.8478 50.0455C44.8982 50.1012 45.8333 50.1936 45.9257 50.2507C46.0999 50.3584 47.6634 55.6173 47.5538 55.7269C47.4996 55.7813 40.7249 55.4118 34.9935 55.042C33.9073 54.9719 32.7756 54.9132 32.4787 54.9115C32.0725 54.9092 31.8366 54.8064 31.5264 54.496L31.1141 54.0835V51.6734V49.2634L31.7136 49.2655C32.0434 49.2666 33.6146 49.3596 35.2052 49.4721ZM29.7378 60.9072C30.8788 61.4441 32.3328 61.7668 36.1221 62.3244C37.5187 62.5301 38.7408 62.7217 38.8378 62.7505C38.9699 62.7897 39.0141 63.4069 39.0141 65.2129C39.0141 67.5836 39.0085 67.6286 38.6678 67.9693L38.3216 68.3158H33.3712H28.4209L28.0747 67.9693L27.7283 67.623V63.6482V59.6735L28.2212 60.0496C28.4924 60.2565 29.1749 60.6425 29.7378 60.9072Z" fill="white"/>
<path fill-rule="evenodd" clip-rule="evenodd" d="M11.146 17.8559C10.9555 18.0464 10.7996 18.3188 10.7996 18.4612C10.7996 18.895 10.3813 20.3671 10.0806 20.9922C9.39102 22.4248 8.01105 23.6384 6.4989 24.1418C5.52536 24.4659 5.15674 24.8149 5.15674 25.4126C5.15674 25.9944 5.5248 26.3644 6.33906 26.6012C8.60906 27.2614 10.3396 29.3961 10.7479 32.0395C11.0117 33.7478 12.8447 33.7478 13.1086 32.0395C13.5168 29.3961 15.2473 27.2614 17.5173 26.6012C18.3316 26.3644 18.6997 25.9944 18.6997 25.4126C18.6997 24.8149 18.331 24.4659 17.3575 24.1418C15.8454 23.6384 14.4654 22.4248 13.7758 20.9922C13.4751 20.3671 13.0568 18.895 13.0568 18.4612C13.0568 18.046 12.4205 17.5094 11.9282 17.5094C11.6534 17.5094 11.3642 17.6374 11.146 17.8559ZM12.3987 23.0826C12.6187 23.4309 13.2151 24.0977 13.7241 24.5642L14.6494 25.4125L13.7241 26.2608C13.2151 26.7272 12.6187 27.3941 12.3987 27.7424C12.1788 28.0907 11.9671 28.3756 11.9283 28.3756C11.8895 28.3756 11.6777 28.0907 11.4578 27.7424C11.2379 27.3941 10.6414 26.7272 10.1324 26.2608L9.20713 25.4125L10.1324 24.5642C10.6414 24.0977 11.2379 23.4309 11.4578 23.0826C11.6777 22.7343 11.8895 22.4493 11.9283 22.4493C11.9671 22.4493 12.1788 22.7343 12.3987 23.0826Z" fill="#DB3138"/>
</g>
<defs>
<filter id="filter0_d_2_243" x="0" y="0.573853" width="78" height="78" filterUnits="userSpaceOnUse" color-interpolation-filters="sRGB">
<feFlood flood-opacity="0" result="BackgroundImageFix"/>
<feColorMatrix in="SourceAlpha" type="matrix" values="0 0 0 0 0 0 0 0 0 0 0 0 0 0 0 0 0 0 127 0" result="hardAlpha"/>
<feOffset dy="4"/>
<feGaussianBlur stdDeviation="2"/>
<feComposite in2="hardAlpha" operator="out"/>
<feColorMatrix type="matrix" values="0 0 0 0 0 0 0 0 0 0 0 0 0 0 0 0 0 0 0.25 0"/>
<feBlend mode="normal" in2="BackgroundImageFix" result="effect1_dropShadow_2_243"/>
<feBlend mode="normal" in="SourceGraphic" in2="effect1_dropShadow_2_243" result="shape"/>
</filter>
</defs>
</svg>
